<?xml version="1.0" encoding="utf-8" standalone="no"?>
<!DOCTYPE svg PUBLIC "-//W3C//DTD SVG 1.1//EN"
  "http://www.w3.org/Graphics/SVG/1.1/DTD/svg11.dtd">
<!-- Created with matplotlib (http://matplotlib.org/) -->
<svg height="576pt" version="1.1" viewBox="0 0 576 576" width="576pt" xmlns="http://www.w3.org/2000/svg" xmlns:xlink="http://www.w3.org/1999/xlink">
 <defs>
  <style type="text/css">
*{stroke-linecap:butt;stroke-linejoin:round;}
  </style>
 </defs>
 <g id="figure_1">
  <g id="patch_1">
   <path d="M 0 576 
L 576 576 
L 576 0 
L 0 0 
z
" style="fill:#ffffff;"/>
  </g>
  <g id="axes_1">
   <g id="patch_2">
    <path d="M 72 504 
L 518.4 504 
L 518.4 69.12 
L 72 69.12 
z
" style="fill:#ffffff;"/>
   </g>
   <g id="matplotlib.axis_1"/>
   <g id="matplotlib.axis_2"/>
   <g id="line2d_1">
    <path clip-path="url(#p269789485b)" d="M 92.290909 504 
L 116.688796 479.25753 
L 129.701002 466.3663 
L 141.086682 455.395081 
L 150.845837 446.288373 
L 159.791729 438.228554 
L 167.924358 431.17408 
L 176.056987 424.408169 
L 183.376353 418.587754 
L 190.695719 413.041488 
L 198.015085 407.787175 
L 204.521188 403.375424 
L 211.027291 399.21888 
L 217.533394 395.328084 
L 224.039497 391.712903 
L 229.732337 388.782937 
L 235.425178 386.07671 
L 241.118018 383.599476 
L 246.810858 381.356047 
L 252.503698 379.350779 
L 258.196539 377.587566 
L 263.889379 376.069832 
L 269.582219 374.800524 
L 275.275059 373.782107 
L 280.967899 373.016559 
L 286.66074 372.505366 
L 292.35358 372.249521 
L 298.04642 372.249521 
L 303.73926 372.505366 
L 309.432101 373.016559 
L 315.124941 373.782107 
L 320.817781 374.800524 
L 326.510621 376.069832 
L 332.203461 377.587566 
L 337.896302 379.350779 
L 343.589142 381.356047 
L 349.281982 383.599476 
L 354.974822 386.07671 
L 360.667663 388.782937 
L 366.360503 391.712903 
L 372.866606 395.328084 
L 379.372709 399.21888 
L 385.878812 403.375424 
L 392.384915 407.787175 
L 399.704281 413.041488 
L 407.023647 418.587754 
L 414.343013 424.408169 
L 422.475642 431.17408 
L 430.608271 438.228554 
L 439.554163 446.288373 
L 449.313318 455.395081 
L 459.885735 465.571928 
L 472.084678 477.629698 
L 488.349936 494.053392 
L 498.109091 504 
L 498.109091 504 
" style="fill:none;stroke:#000000;stroke-linecap:square;stroke-width:4;"/>
   </g>
   <g id="line2d_2">
    <path clip-path="url(#p269789485b)" d="M 92.290909 504 
L 114.249007 437.119661 
L 126.44795 400.67516 
L 136.207105 372.167195 
L 145.152997 346.691701 
L 153.285626 324.18345 
L 160.604992 304.532727 
L 167.924358 285.522239 
L 174.430461 269.210885 
L 180.936564 253.495008 
L 187.442667 238.414467 
L 193.135507 225.770276 
L 198.828348 213.666377 
L 204.521188 202.126273 
L 209.400765 192.700509 
L 214.280343 183.718892 
L 219.15992 175.194238 
L 224.039497 167.13871 
L 228.919075 159.5638 
L 232.985389 153.626333 
L 237.051703 148.036029 
L 241.118018 142.798428 
L 245.184332 137.91872 
L 249.250647 133.401739 
L 253.316961 129.25196 
L 257.383276 125.473497 
L 260.636327 122.720601 
L 263.889379 120.209495 
L 267.14243 117.941773 
L 270.395482 115.918871 
L 273.648533 114.142073 
L 276.901585 112.612505 
L 280.154637 111.331138 
L 283.407688 110.298784 
L 286.66074 109.516098 
L 289.913791 108.983576 
L 293.166843 108.701555 
L 296.419894 108.670216 
L 299.672946 108.889576 
L 302.925997 109.359499 
L 306.179049 110.079684 
L 309.432101 111.049676 
L 312.685152 112.26886 
L 315.938204 113.736462 
L 319.191255 115.451552 
L 322.444307 117.413043 
L 325.697358 119.619689 
L 328.95041 122.070092 
L 332.203461 124.762698 
L 335.456513 127.695799 
L 339.522827 131.697525 
L 343.589142 136.068141 
L 347.655456 140.803319 
L 351.721771 145.898366 
L 355.788085 151.348234 
L 359.8544 157.147523 
L 363.920714 163.290486 
L 368.800291 171.107099 
L 373.679869 179.398669 
L 378.559446 188.153366 
L 383.439024 197.358698 
L 388.318601 207.001533 
L 394.011441 218.786072 
L 399.704281 231.124465 
L 405.397122 243.992752 
L 411.089962 257.365945 
L 417.596065 273.234489 
L 424.102168 289.688304 
L 431.421534 308.846416 
L 438.7409 328.630916 
L 446.873529 351.271049 
L 455.819421 376.870637 
L 465.578575 405.488243 
L 476.964256 439.574115 
L 492.416251 486.582506 
L 498.109091 504 
L 498.109091 504 
" style="fill:none;stroke:#000000;stroke-dasharray:20,10;stroke-dashoffset:0;stroke-width:2;"/>
   </g>
   <g id="line2d_3">
    <path clip-path="url(#p269789485b)" d="M 110.73719 504 
L 110.73719 69.12 
" style="fill:none;stroke:#808080;stroke-linecap:square;stroke-width:1.5;"/>
   </g>
   <g id="line2d_4">
    <path clip-path="url(#p269789485b)" d="M 295.2 504 
L 295.2 69.12 
" style="fill:none;stroke:#808080;stroke-dasharray:45,7.5,15,7.5;stroke-dashoffset:0;stroke-width:1.5;"/>
   </g>
   <g id="line2d_5">
    <path clip-path="url(#p269789485b)" d="M 479.66281 504 
L 479.66281 69.12 
" style="fill:none;stroke:#808080;stroke-linecap:square;stroke-width:1.5;"/>
   </g>
   <g id="patch_3">
    <path d="M 72 504 
L 518.4 504 
" style="fill:none;stroke:#000000;stroke-linecap:square;stroke-linejoin:miter;stroke-width:0.8;"/>
   </g>
   <g id="patch_4">
    <path d="M 368.420129 338.536302 
Q 362.412929 350.395249 356.405728 362.254197 
L 358.18988 363.157967 
Q 354.364362 367.943817 350.538843 372.729668 
Q 352.134171 366.814105 353.729499 360.898542 
L 355.513652 361.802312 
Q 361.520852 349.943364 367.528053 338.084417 
L 368.420129 338.536302 
z
" style="stroke:#000000;stroke-linecap:round;"/>
   </g>
   <g id="text_1">
    <!-- Thermal -->
    <defs>
     <path d="M -0.296875 72.90625 
L 61.375 72.90625 
L 61.375 64.59375 
L 35.5 64.59375 
L 35.5 0 
L 25.59375 0 
L 25.59375 64.59375 
L -0.296875 64.59375 
z
" id="DejaVuSans-54"/>
     <path d="M 54.890625 33.015625 
L 54.890625 0 
L 45.90625 0 
L 45.90625 32.71875 
Q 45.90625 40.484375 42.875 44.328125 
Q 39.84375 48.1875 33.796875 48.1875 
Q 26.515625 48.1875 22.3125 43.546875 
Q 18.109375 38.921875 18.109375 30.90625 
L 18.109375 0 
L 9.078125 0 
L 9.078125 75.984375 
L 18.109375 75.984375 
L 18.109375 46.1875 
Q 21.34375 51.125 25.703125 53.5625 
Q 30.078125 56 35.796875 56 
Q 45.21875 56 50.046875 50.171875 
Q 54.890625 44.34375 54.890625 33.015625 
z
" id="DejaVuSans-68"/>
     <path d="M 56.203125 29.59375 
L 56.203125 25.203125 
L 14.890625 25.203125 
Q 15.484375 15.921875 20.484375 11.0625 
Q 25.484375 6.203125 34.421875 6.203125 
Q 39.59375 6.203125 44.453125 7.46875 
Q 49.3125 8.734375 54.109375 11.28125 
L 54.109375 2.78125 
Q 49.265625 0.734375 44.1875 -0.34375 
Q 39.109375 -1.421875 33.890625 -1.421875 
Q 20.796875 -1.421875 13.15625 6.1875 
Q 5.515625 13.8125 5.515625 26.8125 
Q 5.515625 40.234375 12.765625 48.109375 
Q 20.015625 56 32.328125 56 
Q 43.359375 56 49.78125 48.890625 
Q 56.203125 41.796875 56.203125 29.59375 
z
M 47.21875 32.234375 
Q 47.125 39.59375 43.09375 43.984375 
Q 39.0625 48.390625 32.421875 48.390625 
Q 24.90625 48.390625 20.390625 44.140625 
Q 15.875 39.890625 15.1875 32.171875 
z
" id="DejaVuSans-65"/>
     <path d="M 41.109375 46.296875 
Q 39.59375 47.171875 37.8125 47.578125 
Q 36.03125 48 33.890625 48 
Q 26.265625 48 22.1875 43.046875 
Q 18.109375 38.09375 18.109375 28.8125 
L 18.109375 0 
L 9.078125 0 
L 9.078125 54.6875 
L 18.109375 54.6875 
L 18.109375 46.1875 
Q 20.953125 51.171875 25.484375 53.578125 
Q 30.03125 56 36.53125 56 
Q 37.453125 56 38.578125 55.875 
Q 39.703125 55.765625 41.0625 55.515625 
z
" id="DejaVuSans-72"/>
     <path d="M 52 44.1875 
Q 55.375 50.25 60.0625 53.125 
Q 64.75 56 71.09375 56 
Q 79.640625 56 84.28125 50.015625 
Q 88.921875 44.046875 88.921875 33.015625 
L 88.921875 0 
L 79.890625 0 
L 79.890625 32.71875 
Q 79.890625 40.578125 77.09375 44.375 
Q 74.3125 48.1875 68.609375 48.1875 
Q 61.625 48.1875 57.5625 43.546875 
Q 53.515625 38.921875 53.515625 30.90625 
L 53.515625 0 
L 44.484375 0 
L 44.484375 32.71875 
Q 44.484375 40.625 41.703125 44.40625 
Q 38.921875 48.1875 33.109375 48.1875 
Q 26.21875 48.1875 22.15625 43.53125 
Q 18.109375 38.875 18.109375 30.90625 
L 18.109375 0 
L 9.078125 0 
L 9.078125 54.6875 
L 18.109375 54.6875 
L 18.109375 46.1875 
Q 21.1875 51.21875 25.484375 53.609375 
Q 29.78125 56 35.6875 56 
Q 41.65625 56 45.828125 52.96875 
Q 50 49.953125 52 44.1875 
z
" id="DejaVuSans-6d"/>
     <path d="M 34.28125 27.484375 
Q 23.390625 27.484375 19.1875 25 
Q 14.984375 22.515625 14.984375 16.5 
Q 14.984375 11.71875 18.140625 8.90625 
Q 21.296875 6.109375 26.703125 6.109375 
Q 34.1875 6.109375 38.703125 11.40625 
Q 43.21875 16.703125 43.21875 25.484375 
L 43.21875 27.484375 
z
M 52.203125 31.203125 
L 52.203125 0 
L 43.21875 0 
L 43.21875 8.296875 
Q 40.140625 3.328125 35.546875 0.953125 
Q 30.953125 -1.421875 24.3125 -1.421875 
Q 15.921875 -1.421875 10.953125 3.296875 
Q 6 8.015625 6 15.921875 
Q 6 25.140625 12.171875 29.828125 
Q 18.359375 34.515625 30.609375 34.515625 
L 43.21875 34.515625 
L 43.21875 35.40625 
Q 43.21875 41.609375 39.140625 45 
Q 35.0625 48.390625 27.6875 48.390625 
Q 23 48.390625 18.546875 47.265625 
Q 14.109375 46.140625 10.015625 43.890625 
L 10.015625 52.203125 
Q 14.9375 54.109375 19.578125 55.046875 
Q 24.21875 56 28.609375 56 
Q 40.484375 56 46.34375 49.84375 
Q 52.203125 43.703125 52.203125 31.203125 
z
" id="DejaVuSans-61"/>
     <path d="M 9.421875 75.984375 
L 18.40625 75.984375 
L 18.40625 0 
L 9.421875 0 
z
" id="DejaVuSans-6c"/>
    </defs>
    <g transform="translate(368.985124 333.194926)scale(0.15 -0.15)">
     <use xlink:href="#DejaVuSans-54"/>
     <use x="61.083984" xlink:href="#DejaVuSans-68"/>
     <use x="124.462891" xlink:href="#DejaVuSans-65"/>
     <use x="185.986328" xlink:href="#DejaVuSans-72"/>
     <use x="227.083984" xlink:href="#DejaVuSans-6d"/>
     <use x="324.496094" xlink:href="#DejaVuSans-61"/>
     <use x="385.775391" xlink:href="#DejaVuSans-6c"/>
    </g>
   </g>
   <g id="patch_5">
    <path d="M 404.149611 75.50948 
Q 382.493288 89.760221 360.836966 104.010963 
L 361.936369 105.681685 
Q 356.237606 107.935344 350.538843 110.189003 
Q 354.863352 105.846941 359.187861 101.504879 
L 360.287264 103.175602 
Q 381.943587 88.92486 403.59991 74.674119 
L 404.149611 75.50948 
z
" style="stroke:#000000;stroke-linecap:round;"/>
   </g>
   <g id="text_2">
    <!-- Fast -->
    <defs>
     <path d="M 9.8125 72.90625 
L 51.703125 72.90625 
L 51.703125 64.59375 
L 19.671875 64.59375 
L 19.671875 43.109375 
L 48.578125 43.109375 
L 48.578125 34.8125 
L 19.671875 34.8125 
L 19.671875 0 
L 9.8125 0 
z
" id="DejaVuSans-46"/>
     <path d="M 44.28125 53.078125 
L 44.28125 44.578125 
Q 40.484375 46.53125 36.375 47.5 
Q 32.28125 48.484375 27.875 48.484375 
Q 21.1875 48.484375 17.84375 46.4375 
Q 14.5 44.390625 14.5 40.28125 
Q 14.5 37.15625 16.890625 35.375 
Q 19.28125 33.59375 26.515625 31.984375 
L 29.59375 31.296875 
Q 39.15625 29.25 43.1875 25.515625 
Q 47.21875 21.78125 47.21875 15.09375 
Q 47.21875 7.46875 41.1875 3.015625 
Q 35.15625 -1.421875 24.609375 -1.421875 
Q 20.21875 -1.421875 15.453125 -0.5625 
Q 10.6875 0.296875 5.421875 2 
L 5.421875 11.28125 
Q 10.40625 8.6875 15.234375 7.390625 
Q 20.0625 6.109375 24.8125 6.109375 
Q 31.15625 6.109375 34.5625 8.28125 
Q 37.984375 10.453125 37.984375 14.40625 
Q 37.984375 18.0625 35.515625 20.015625 
Q 33.0625 21.96875 24.703125 23.78125 
L 21.578125 24.515625 
Q 13.234375 26.265625 9.515625 29.90625 
Q 5.8125 33.546875 5.8125 39.890625 
Q 5.8125 47.609375 11.28125 51.796875 
Q 16.75 56 26.8125 56 
Q 31.78125 56 36.171875 55.265625 
Q 40.578125 54.546875 44.28125 53.078125 
z
" id="DejaVuSans-73"/>
     <path d="M 18.3125 70.21875 
L 18.3125 54.6875 
L 36.8125 54.6875 
L 36.8125 47.703125 
L 18.3125 47.703125 
L 18.3125 18.015625 
Q 18.3125 11.328125 20.140625 9.421875 
Q 21.96875 7.515625 27.59375 7.515625 
L 36.8125 7.515625 
L 36.8125 0 
L 27.59375 0 
Q 17.1875 0 13.234375 3.875 
Q 9.28125 7.765625 9.28125 18.015625 
L 9.28125 47.703125 
L 2.6875 47.703125 
L 2.6875 54.6875 
L 9.28125 54.6875 
L 9.28125 70.21875 
z
" id="DejaVuSans-74"/>
    </defs>
    <g transform="translate(405.877686 70.654262)scale(0.15 -0.15)">
     <use xlink:href="#DejaVuSans-46"/>
     <use x="57.378906" xlink:href="#DejaVuSans-61"/>
     <use x="118.658203" xlink:href="#DejaVuSans-73"/>
     <use x="170.757812" xlink:href="#DejaVuSans-74"/>
    </g>
   </g>
   <g id="text_3">
    <!-- $\phi$ -->
    <defs>
     <path d="M 46.734375 75.984375 
L 42.78125 55.8125 
Q 52.546875 55.8125 57.5625 48.34375 
Q 62.75 40.71875 60.15625 27.296875 
Q 57.515625 13.875 49.359375 6.25 
Q 41.453125 -1.21875 31.6875 -1.21875 
L 27.875 -20.796875 
L 18.953125 -20.796875 
L 22.75 -1.21875 
Q 13.03125 -1.21875 7.953125 6.25 
Q 2.78125 13.875 5.421875 27.296875 
Q 8.015625 40.71875 16.15625 48.34375 
Q 24.125 55.8125 33.84375 55.8125 
L 37.796875 75.984375 
z
M 33.25 6.78125 
Q 38.765625 6.78125 43.5 11.8125 
Q 48.6875 17.4375 50.6875 27.296875 
Q 52.640625 37.0625 49.515625 42.78125 
Q 46.734375 47.796875 41.21875 47.796875 
z
M 24.3125 6.78125 
L 32.28125 47.796875 
Q 26.8125 47.796875 22.078125 42.78125 
Q 16.75 37.0625 14.890625 27.296875 
Q 13.03125 17.4375 16.0625 11.8125 
Q 18.796875 6.78125 24.3125 6.78125 
z
" id="DejaVuSans-Oblique-3d5"/>
    </defs>
    <g transform="translate(276.753719 88.887273)scale(0.2 -0.2)">
     <use transform="translate(0 0.015625)" xlink:href="#DejaVuSans-Oblique-3d5"/>
    </g>
   </g>
   <g id="patch_6">
    <path d="M 476.543539 490.821753 
Q 295.200171 490.821753 113.856803 490.821753 
" style="fill:none;stroke:#000000;stroke-linecap:round;"/>
    <path d="M 472.543539 488.821753 
L 476.543539 490.821753 
L 472.543539 492.821753 
" style="fill:none;stroke:#000000;stroke-linecap:round;"/>
    <path d="M 117.856803 492.821753 
L 113.856803 490.821753 
L 117.856803 488.821753 
" style="fill:none;stroke:#000000;stroke-linecap:round;"/>
   </g>
   <g id="text_4">
    <!-- Core -->
    <defs>
     <path d="M 64.40625 67.28125 
L 64.40625 56.890625 
Q 59.421875 61.53125 53.78125 63.8125 
Q 48.140625 66.109375 41.796875 66.109375 
Q 29.296875 66.109375 22.65625 58.46875 
Q 16.015625 50.828125 16.015625 36.375 
Q 16.015625 21.96875 22.65625 14.328125 
Q 29.296875 6.6875 41.796875 6.6875 
Q 48.140625 6.6875 53.78125 8.984375 
Q 59.421875 11.28125 64.40625 15.921875 
L 64.40625 5.609375 
Q 59.234375 2.09375 53.4375 0.328125 
Q 47.65625 -1.421875 41.21875 -1.421875 
Q 24.65625 -1.421875 15.125 8.703125 
Q 5.609375 18.84375 5.609375 36.375 
Q 5.609375 53.953125 15.125 64.078125 
Q 24.65625 74.21875 41.21875 74.21875 
Q 47.75 74.21875 53.53125 72.484375 
Q 59.328125 70.75 64.40625 67.28125 
z
" id="DejaVuSans-43"/>
     <path d="M 30.609375 48.390625 
Q 23.390625 48.390625 19.1875 42.75 
Q 14.984375 37.109375 14.984375 27.296875 
Q 14.984375 17.484375 19.15625 11.84375 
Q 23.34375 6.203125 30.609375 6.203125 
Q 37.796875 6.203125 41.984375 11.859375 
Q 46.1875 17.53125 46.1875 27.296875 
Q 46.1875 37.015625 41.984375 42.703125 
Q 37.796875 48.390625 30.609375 48.390625 
z
M 30.609375 56 
Q 42.328125 56 49.015625 48.375 
Q 55.71875 40.765625 55.71875 27.296875 
Q 55.71875 13.875 49.015625 6.21875 
Q 42.328125 -1.421875 30.609375 -1.421875 
Q 18.84375 -1.421875 12.171875 6.21875 
Q 5.515625 13.875 5.515625 27.296875 
Q 5.515625 40.765625 12.171875 48.375 
Q 18.84375 56 30.609375 56 
z
" id="DejaVuSans-6f"/>
    </defs>
    <g transform="translate(304.42314 484.232629)scale(0.15 -0.15)">
     <use xlink:href="#DejaVuSans-43"/>
     <use x="69.824219" xlink:href="#DejaVuSans-6f"/>
     <use x="131.005859" xlink:href="#DejaVuSans-72"/>
     <use x="172.087891" xlink:href="#DejaVuSans-65"/>
    </g>
   </g>
  </g>
 </g>
 <defs>
  <clipPath id="p269789485b">
   <rect height="434.88" width="446.4" x="72" y="69.12"/>
  </clipPath>
 </defs>
</svg>
